<mxfile host="app.diagrams.net" modified="2023-11-10T13:10:36.552Z" agent="Mozilla/5.0 (Windows NT 10.0; Win64; x64) AppleWebKit/537.36 (KHTML, like Gecko) Chrome/119.0.0.0 Safari/537.36" etag="AFO5dknUmdpJEJ9OQRce" version="22.1.0" type="device">
  <diagram name="Trang-1" id="1bT6xQNrQoaEzTDrTpRP">
    <mxGraphModel dx="1050" dy="565" grid="1" gridSize="10" guides="1" tooltips="1" connect="1" arrows="1" fold="1" page="1" pageScale="1" pageWidth="827" pageHeight="1169" math="0" shadow="0">
      <root>
        <mxCell id="0" />
        <mxCell id="1" parent="0" />
        <mxCell id="loGQFenZIwGzkwQMx5UV-10" style="edgeStyle=orthogonalEdgeStyle;rounded=0;orthogonalLoop=1;jettySize=auto;html=1;" edge="1" parent="1" source="loGQFenZIwGzkwQMx5UV-1">
          <mxGeometry relative="1" as="geometry">
            <mxPoint x="385" y="100" as="targetPoint" />
          </mxGeometry>
        </mxCell>
        <mxCell id="loGQFenZIwGzkwQMx5UV-1" value="&lt;font style=&quot;vertical-align: inherit;&quot;&gt;&lt;font style=&quot;vertical-align: inherit;&quot;&gt;Start&lt;/font&gt;&lt;/font&gt;" style="ellipse;whiteSpace=wrap;html=1;" vertex="1" parent="1">
          <mxGeometry x="340" width="90" height="60" as="geometry" />
        </mxCell>
        <mxCell id="loGQFenZIwGzkwQMx5UV-12" style="edgeStyle=orthogonalEdgeStyle;rounded=0;orthogonalLoop=1;jettySize=auto;html=1;exitX=0.5;exitY=1;exitDx=0;exitDy=0;" edge="1" parent="1" source="loGQFenZIwGzkwQMx5UV-5">
          <mxGeometry relative="1" as="geometry">
            <mxPoint x="380" y="240" as="targetPoint" />
          </mxGeometry>
        </mxCell>
        <mxCell id="loGQFenZIwGzkwQMx5UV-5" value="&lt;p&gt;&lt;font face=&quot;Times New Roman&quot;&gt;&lt;font style=&quot;vertical-align: inherit;&quot;&gt;&lt;font style=&quot;vertical-align: inherit;&quot;&gt;&amp;nbsp;a = max&lt;/font&gt;&lt;/font&gt;&lt;/font&gt;&lt;/p&gt;" style="rounded=0;whiteSpace=wrap;html=1;" vertex="1" parent="1">
          <mxGeometry x="340" y="170" width="80" height="30" as="geometry" />
        </mxCell>
        <mxCell id="loGQFenZIwGzkwQMx5UV-13" style="edgeStyle=orthogonalEdgeStyle;rounded=0;orthogonalLoop=1;jettySize=auto;html=1;exitX=1;exitY=0.5;exitDx=0;exitDy=0;" edge="1" parent="1" source="loGQFenZIwGzkwQMx5UV-6">
          <mxGeometry relative="1" as="geometry">
            <mxPoint x="530" y="280" as="targetPoint" />
          </mxGeometry>
        </mxCell>
        <mxCell id="loGQFenZIwGzkwQMx5UV-17" style="edgeStyle=orthogonalEdgeStyle;rounded=0;orthogonalLoop=1;jettySize=auto;html=1;exitX=0.5;exitY=1;exitDx=0;exitDy=0;" edge="1" parent="1" source="loGQFenZIwGzkwQMx5UV-6" target="loGQFenZIwGzkwQMx5UV-18">
          <mxGeometry relative="1" as="geometry">
            <mxPoint x="380" y="360" as="targetPoint" />
          </mxGeometry>
        </mxCell>
        <mxCell id="loGQFenZIwGzkwQMx5UV-6" value="&lt;font style=&quot;vertical-align: inherit;&quot;&gt;&lt;font style=&quot;vertical-align: inherit;&quot;&gt;b &amp;gt; max&lt;/font&gt;&lt;/font&gt;" style="rhombus;whiteSpace=wrap;html=1;" vertex="1" parent="1">
          <mxGeometry x="340" y="240" width="80" height="80" as="geometry" />
        </mxCell>
        <mxCell id="loGQFenZIwGzkwQMx5UV-11" style="edgeStyle=orthogonalEdgeStyle;rounded=0;orthogonalLoop=1;jettySize=auto;html=1;exitX=0.5;exitY=1;exitDx=0;exitDy=0;" edge="1" parent="1" source="loGQFenZIwGzkwQMx5UV-7">
          <mxGeometry relative="1" as="geometry">
            <mxPoint x="380" y="170" as="targetPoint" />
          </mxGeometry>
        </mxCell>
        <mxCell id="loGQFenZIwGzkwQMx5UV-7" value="&lt;font style=&quot;vertical-align: inherit;&quot;&gt;&lt;font style=&quot;vertical-align: inherit;&quot;&gt;input a, b, c&lt;br&gt;&lt;br&gt;&lt;/font&gt;&lt;/font&gt;" style="shape=parallelogram;perimeter=parallelogramPerimeter;whiteSpace=wrap;html=1;fixedSize=1;" vertex="1" parent="1">
          <mxGeometry x="320" y="100" width="120" height="30" as="geometry" />
        </mxCell>
        <mxCell id="loGQFenZIwGzkwQMx5UV-9" style="edgeStyle=orthogonalEdgeStyle;rounded=0;orthogonalLoop=1;jettySize=auto;html=1;exitX=0.5;exitY=1;exitDx=0;exitDy=0;" edge="1" parent="1" source="loGQFenZIwGzkwQMx5UV-1" target="loGQFenZIwGzkwQMx5UV-1">
          <mxGeometry relative="1" as="geometry" />
        </mxCell>
        <mxCell id="loGQFenZIwGzkwQMx5UV-15" value="&lt;font style=&quot;vertical-align: inherit;&quot;&gt;&lt;font style=&quot;vertical-align: inherit;&quot;&gt;đúng&lt;br&gt;&lt;/font&gt;&lt;/font&gt;" style="text;html=1;align=center;verticalAlign=middle;resizable=0;points=[];autosize=1;strokeColor=none;fillColor=none;" vertex="1" parent="1">
          <mxGeometry x="445" y="248" width="50" height="30" as="geometry" />
        </mxCell>
        <mxCell id="loGQFenZIwGzkwQMx5UV-25" style="edgeStyle=orthogonalEdgeStyle;rounded=0;orthogonalLoop=1;jettySize=auto;html=1;" edge="1" parent="1" source="loGQFenZIwGzkwQMx5UV-16">
          <mxGeometry relative="1" as="geometry">
            <mxPoint x="380" y="330" as="targetPoint" />
            <Array as="points">
              <mxPoint x="570" y="320" />
              <mxPoint x="571" y="320" />
            </Array>
          </mxGeometry>
        </mxCell>
        <mxCell id="loGQFenZIwGzkwQMx5UV-26" style="edgeStyle=orthogonalEdgeStyle;rounded=0;orthogonalLoop=1;jettySize=auto;html=1;exitX=0.5;exitY=1;exitDx=0;exitDy=0;" edge="1" parent="1" source="loGQFenZIwGzkwQMx5UV-16">
          <mxGeometry relative="1" as="geometry">
            <mxPoint x="570" y="330" as="targetPoint" />
          </mxGeometry>
        </mxCell>
        <mxCell id="loGQFenZIwGzkwQMx5UV-16" value="&lt;font style=&quot;vertical-align: inherit;&quot;&gt;&lt;font style=&quot;vertical-align: inherit;&quot;&gt;Max = b&lt;/font&gt;&lt;/font&gt;" style="rounded=0;whiteSpace=wrap;html=1;" vertex="1" parent="1">
          <mxGeometry x="530" y="265" width="80" height="25" as="geometry" />
        </mxCell>
        <mxCell id="loGQFenZIwGzkwQMx5UV-20" style="edgeStyle=orthogonalEdgeStyle;rounded=0;orthogonalLoop=1;jettySize=auto;html=1;exitX=1;exitY=0.5;exitDx=0;exitDy=0;" edge="1" parent="1" source="loGQFenZIwGzkwQMx5UV-18">
          <mxGeometry relative="1" as="geometry">
            <mxPoint x="530" y="390" as="targetPoint" />
          </mxGeometry>
        </mxCell>
        <mxCell id="loGQFenZIwGzkwQMx5UV-27" style="edgeStyle=orthogonalEdgeStyle;rounded=0;orthogonalLoop=1;jettySize=auto;html=1;" edge="1" parent="1" source="loGQFenZIwGzkwQMx5UV-18">
          <mxGeometry relative="1" as="geometry">
            <mxPoint x="380" y="500" as="targetPoint" />
            <Array as="points">
              <mxPoint x="380" y="465" />
              <mxPoint x="381" y="465" />
            </Array>
          </mxGeometry>
        </mxCell>
        <mxCell id="loGQFenZIwGzkwQMx5UV-18" value="&lt;font style=&quot;vertical-align: inherit;&quot;&gt;&lt;font style=&quot;vertical-align: inherit;&quot;&gt;c &amp;gt; max&lt;/font&gt;&lt;/font&gt;" style="rhombus;whiteSpace=wrap;html=1;" vertex="1" parent="1">
          <mxGeometry x="340" y="350" width="80" height="80" as="geometry" />
        </mxCell>
        <mxCell id="loGQFenZIwGzkwQMx5UV-19" value="&lt;font style=&quot;vertical-align: inherit;&quot;&gt;&lt;font style=&quot;vertical-align: inherit;&quot;&gt;&lt;font style=&quot;vertical-align: inherit;&quot;&gt;&lt;font style=&quot;vertical-align: inherit;&quot;&gt;Sai&lt;/font&gt;&lt;/font&gt;&lt;/font&gt;&lt;/font&gt;" style="text;html=1;align=center;verticalAlign=middle;resizable=0;points=[];autosize=1;strokeColor=none;fillColor=none;" vertex="1" parent="1">
          <mxGeometry x="335" y="320" width="40" height="30" as="geometry" />
        </mxCell>
        <mxCell id="loGQFenZIwGzkwQMx5UV-22" value="&lt;font style=&quot;vertical-align: inherit;&quot;&gt;&lt;font style=&quot;vertical-align: inherit;&quot;&gt;đúng&lt;/font&gt;&lt;/font&gt;" style="text;html=1;align=center;verticalAlign=middle;resizable=0;points=[];autosize=1;strokeColor=none;fillColor=none;" vertex="1" parent="1">
          <mxGeometry x="435" y="368" width="50" height="30" as="geometry" />
        </mxCell>
        <mxCell id="loGQFenZIwGzkwQMx5UV-28" style="edgeStyle=orthogonalEdgeStyle;rounded=0;orthogonalLoop=1;jettySize=auto;html=1;" edge="1" parent="1">
          <mxGeometry relative="1" as="geometry">
            <mxPoint x="380" y="460" as="targetPoint" />
            <mxPoint x="570" y="410" as="sourcePoint" />
            <Array as="points">
              <mxPoint x="570" y="433" />
              <mxPoint x="571" y="433" />
            </Array>
          </mxGeometry>
        </mxCell>
        <mxCell id="loGQFenZIwGzkwQMx5UV-29" style="edgeStyle=orthogonalEdgeStyle;rounded=0;orthogonalLoop=1;jettySize=auto;html=1;exitX=0.5;exitY=1;exitDx=0;exitDy=0;" edge="1" parent="1" source="loGQFenZIwGzkwQMx5UV-24">
          <mxGeometry relative="1" as="geometry">
            <mxPoint x="570" y="460" as="targetPoint" />
          </mxGeometry>
        </mxCell>
        <mxCell id="loGQFenZIwGzkwQMx5UV-24" value="&lt;font style=&quot;vertical-align: inherit;&quot;&gt;&lt;font style=&quot;vertical-align: inherit;&quot;&gt;Max = c&lt;/font&gt;&lt;/font&gt;" style="rounded=0;whiteSpace=wrap;html=1;" vertex="1" parent="1">
          <mxGeometry x="530" y="375" width="80" height="30" as="geometry" />
        </mxCell>
        <mxCell id="loGQFenZIwGzkwQMx5UV-30" value="&lt;font style=&quot;vertical-align: inherit;&quot;&gt;&lt;font style=&quot;vertical-align: inherit;&quot;&gt;Sai&lt;/font&gt;&lt;/font&gt;" style="text;html=1;align=center;verticalAlign=middle;resizable=0;points=[];autosize=1;strokeColor=none;fillColor=none;" vertex="1" parent="1">
          <mxGeometry x="335" y="440" width="40" height="30" as="geometry" />
        </mxCell>
        <mxCell id="loGQFenZIwGzkwQMx5UV-39" style="edgeStyle=orthogonalEdgeStyle;rounded=0;orthogonalLoop=1;jettySize=auto;html=1;" edge="1" parent="1" source="loGQFenZIwGzkwQMx5UV-33" target="loGQFenZIwGzkwQMx5UV-40">
          <mxGeometry relative="1" as="geometry">
            <mxPoint x="380" y="580" as="targetPoint" />
          </mxGeometry>
        </mxCell>
        <mxCell id="loGQFenZIwGzkwQMx5UV-33" value="&lt;font style=&quot;vertical-align: inherit;&quot;&gt;&lt;font style=&quot;vertical-align: inherit;&quot;&gt;&lt;font style=&quot;vertical-align: inherit;&quot;&gt;&lt;font style=&quot;vertical-align: inherit;&quot;&gt;&lt;font style=&quot;vertical-align: inherit;&quot;&gt;&lt;font style=&quot;vertical-align: inherit;&quot;&gt;in ra max là giá trị lớn nhất&amp;nbsp;&lt;/font&gt;&lt;/font&gt;&lt;/font&gt;&lt;/font&gt;&lt;/font&gt;&lt;/font&gt;" style="text;html=1;align=center;verticalAlign=middle;resizable=0;points=[];autosize=1;strokeColor=none;fillColor=none;" vertex="1" parent="1">
          <mxGeometry x="295" y="498" width="170" height="30" as="geometry" />
        </mxCell>
        <mxCell id="loGQFenZIwGzkwQMx5UV-40" value="&lt;font style=&quot;vertical-align: inherit;&quot;&gt;&lt;font style=&quot;vertical-align: inherit;&quot;&gt;Stop&lt;/font&gt;&lt;/font&gt;" style="ellipse;whiteSpace=wrap;html=1;" vertex="1" parent="1">
          <mxGeometry x="345" y="580" width="70" height="50" as="geometry" />
        </mxCell>
      </root>
    </mxGraphModel>
  </diagram>
</mxfile>
